<?xml version="1.0" standalone="no"?>
<!DOCTYPE svg PUBLIC "-//W3C//DTD SVG 20010904//EN"
 "http://www.w3.org/TR/2001/REC-SVG-20010904/DTD/svg10.dtd">
<svg version="1.0" xmlns="http://www.w3.org/2000/svg"
 width="700.000000pt" height="700.000000pt" viewBox="0 0 700.000000 700.000000"
 preserveAspectRatio="xMidYMid meet">
<metadata>
Created by potrace 1.11, written by Peter Selinger 2001-2013
</metadata>
<g transform="translate(0.000000,700.000000) scale(0.100000,-0.100000)"
fill="#000000" stroke="none">
<path d="M4545 6994 c-76 -18 -138 -50 -174 -90 -39 -45 -108 -171 -116 -212
-2 -13 -35 -58 -73 -100 -147 -165 -310 -382 -536 -715 -113 -166 -128 -193
-133 -240 -14 -123 -3 -723 14 -750 3 -5 0 -8 -8 -5 -21 7 -56 75 -74 143 -9
35 -16 103 -16 160 -1 55 -3 93 -6 85 -3 -8 -10 -26 -16 -40 -56 -140 -177
-505 -222 -670 -20 -74 -43 -148 -50 -165 -8 -16 -30 -70 -50 -120 -20 -49
-48 -115 -62 -145 -14 -30 -56 -122 -93 -205 -38 -82 -103 -222 -145 -310 -42
-88 -91 -189 -107 -225 -17 -36 -43 -90 -58 -121 -23 -48 -26 -66 -24 -135 4
-143 17 -348 29 -474 3 -25 7 -72 11 -105 7 -74 9 -92 23 -191 7 -43 14 -94
16 -111 8 -52 16 -104 25 -150 7 -38 6 -41 -10 -33 -45 24 -98 110 -130 211
-36 111 -65 331 -65 481 0 48 -3 82 -6 75 -7 -14 -66 -275 -75 -332 -3 -22 -9
-58 -13 -81 -4 -22 -9 -76 -10 -118 -2 -62 2 -84 18 -112 18 -31 45 -108 55
-160 3 -11 25 -102 51 -204 47 -189 69 -261 91 -293 8 -13 9 -30 2 -60 -5 -23
-11 -49 -13 -58 -23 -112 -173 -591 -210 -674 -8 -16 -33 -77 -56 -135 -63
-159 -151 -323 -235 -440 -78 -109 -109 -159 -101 -166 13 -14 128 63 209 139
34 32 135 224 241 457 14 30 55 117 91 193 36 76 66 140 66 142 0 2 20 45 44
97 24 51 53 116 66 143 80 176 151 329 155 333 1 2 15 5 30 8 96 17 407 153
550 239 319 193 468 384 751 965 42 85 87 182 101 215 14 33 38 89 55 125 45
97 148 346 148 357 0 6 -74 -9 -165 -32 -91 -24 -168 -43 -170 -43 -7 -1 -65
-12 -90 -18 -11 -3 0 6 24 20 85 50 390 268 445 319 11 9 23 17 27 17 4 0 13
26 19 58 30 149 126 502 219 810 108 356 140 502 166 752 1 14 5 48 9 75 28
234 29 1057 1 1165 -2 8 -7 40 -10 70 -4 30 -9 58 -12 62 -2 5 -7 38 -10 75
-3 38 -10 73 -17 79 -35 35 -139 37 -207 5 l-40 -20 -11 27 c-6 15 -11 54 -12
87 0 33 -4 63 -9 66 -9 7 -85 9 -112 3z m9 -516 c-3 -18 -12 -67 -20 -108 -15
-75 -20 -100 -28 -142 -2 -13 -23 -99 -46 -193 -23 -93 -43 -177 -45 -185 -1
-8 -10 -40 -19 -71 -9 -31 -18 -65 -21 -75 -12 -56 -156 -570 -235 -834 -50
-168 -92 -314 -95 -325 -5 -19 -26 -90 -121 -395 -95 -303 -188 -593 -260
-805 -41 -121 -76 -227 -78 -235 -2 -8 -13 -40 -24 -70 -12 -30 -42 -113 -67
-185 -78 -217 -134 -330 -250 -505 -104 -157 -365 -491 -365 -467 0 5 8 21 19
35 19 28 367 719 394 782 40 95 167 467 387 1135 95 286 193 585 220 665 26
80 89 273 140 430 50 157 106 330 125 385 62 190 332 1029 380 1183 8 24 13
12 9 -20z"/>
</g>
</svg>
