<?xml version="1.0" standalone="no"?><!-- Generator: Gravit.io --><svg xmlns="http://www.w3.org/2000/svg" xmlns:xlink="http://www.w3.org/1999/xlink" style="isolation:isolate" viewBox="-13.75 200.052 637 319.396" width="637" height="319.396"><g id="feather-filled-shape"><g id="Group"><path d=" M 376.212 234.141 C 376.212 224.183 374.819 215.32 374.819 215.32 C 374.819 215.32 374.262 212.769 374.262 208.155 C 369.709 204.27 365.25 208.762 365.25 208.762 C 365.25 208.762 363.67 205.605 364.414 200.385 C 360.326 198.927 355.216 202.733 355.216 202.733 C 355.216 202.733 351.222 207.548 349.766 215.362 C 340.104 227.99 324.248 260.047 324.248 260.047 C 324.248 260.047 323.01 271.38 324.496 297.286 C 319.789 291.131 321.275 277.533 321.275 277.533 C 321.275 277.533 313.596 304.41 312.357 313.152 C 311.118 321.893 292.041 372.733 292.041 372.733 C 292.041 372.733 292.041 397.666 296.006 425.513 C 287.583 419.685 288.574 388.599 288.574 388.599 C 288.574 388.599 283.123 415.799 285.352 418.714 C 287.583 421.626 290.307 446.884 292.785 450.124 C 293.123 451.503 284.331 495.579 274.67 511.607 C 265.008 527.635 277.27 514.523 279.129 512.094 C 280.987 509.664 301.332 450.771 301.332 450.771 C 301.332 450.771 322.515 443.728 333.756 426.727 C 344.996 409.727 358.84 362.978 358.84 362.978 C 358.84 362.978 347.715 367 342.953 367.956 C 347.691 365.164 361.349 351.199 361.349 351.199 C 361.349 351.199 364.228 332.255 370.917 305.297 C 377.606 278.342 376.212 244.097 376.212 234.141 Z  M 319.693 401.55 C 313.932 416.33 303.495 431.698 301.577 434.545 C 301.494 434.699 301.418 434.829 301.361 434.903 C 301.171 435.151 301.268 435.005 301.577 434.545 C 303.478 431.055 311.922 407.969 315.482 399.283 C 319.199 390.216 360.819 220.541 360.819 220.541 C 358.342 250.654 326.382 384.39 319.693 401.55 Z " fill="rgb(0,0,0)"/></g></g><path d=" M 51.75 406.5 L 51.75 406.5 L 51.75 406.5 Q 52.5 406.5 52.5 408 L 52.5 408 L 52.5 408 Q 52.5 409.5 49 413 L 49 413 L 46.5 416.75 L 46.5 416.75 Q 39.75 427 36.625 428.75 L 36.625 428.75 L 36.625 428.75 Q 33.5 430.5 31.625 430.5 L 31.625 430.5 L 31.625 430.5 Q 29.75 430.5 25.875 429.625 L 25.875 429.625 L 25.875 429.625 Q 22 428.75 21.875 427.75 L 21.875 427.75 L 21.875 427.75 Q 21.75 426.75 21.75 425.75 L 21.75 425.75 L 21.75 425.75 Q 21.75 413.5 44 370.5 L 44 370.5 L 44 370.5 Q 38 371.25 34.875 371.25 L 34.875 371.25 L 34.875 371.25 Q 31.75 371.25 29.625 369.375 L 29.625 369.375 L 29.625 369.375 Q 27.5 367.5 27.5 364.5 L 27.5 364.5 L 27.5 364.5 Q 27.5 361.5 32.75 359 L 32.75 359 L 32.75 359 Q 38 356.5 40.875 356.5 L 40.875 356.5 L 40.875 356.5 Q 43.75 356.5 45.75 358.875 L 45.75 358.875 L 45.75 358.875 Q 47.75 361.25 48.25 361.25 L 48.25 361.25 L 49 361.25 L 49 361.25 Q 54.25 351.75 58.5 343.75 L 58.5 343.75 L 58.5 343.75 Q 62.75 335.75 62.75 333.375 L 62.75 333.375 L 62.75 333.375 Q 62.75 331 62 329.75 L 62 329.75 L 62 329.75 Q 63.5 322.5 74.375 311.25 L 74.375 311.25 L 74.375 311.25 Q 85.25 300 94.25 300 L 94.25 300 L 94.25 300 Q 98.25 300 104 303.125 L 104 303.125 L 104 303.125 Q 109.75 306.25 109 311.25 L 109 311.25 L 109 311.25 Q 107.25 310 105.75 310 L 105.75 310 L 105.75 310 Q 88.75 310 59 361 L 59 361 L 59 361 Q 67.25 360.25 76.25 358.75 L 76.25 358.75 L 76.25 358.75 Q 106.25 355 110.25 355 L 110.25 355 L 110.25 355 Q 114.25 355 115.375 355.125 L 115.375 355.125 L 115.375 355.125 Q 116.5 355.25 117.375 355.75 L 117.375 355.75 L 117.375 355.75 Q 118.25 356.25 118.5 356.75 L 118.5 356.75 L 118.5 356.75 Q 118.75 358.25 112.75 360.25 L 112.75 360.25 L 112.75 360.25 Q 98.25 365 54 369.75 L 54 369.75 L 54 369.75 Q 33 407.75 33 416.5 L 33 416.5 L 33 416.5 Q 33 420.75 36.625 419.625 L 36.625 419.625 L 36.625 419.625 Q 40.25 418.5 43 415 L 43 415 L 43 415 Q 49.5 406.5 51.75 406.5 Z  M 149.5 287.5 L 149.5 287.5 L 149.5 287.5 Q 156.75 279.5 163.25 279.5 L 163.25 279.5 L 163.25 279.5 Q 166.25 279.5 168 281 L 168 281 L 168 281 Q 169.75 282.5 169.75 284 L 169.75 284 L 169.75 284 Q 169.75 285.5 168.25 287 L 168.25 287 L 168.25 287 Q 166.75 288.5 162.5 291.625 L 162.5 291.625 L 162.5 291.625 Q 158.25 294.75 155.75 297.25 L 155.75 297.25 L 155.75 297.25 Q 143.75 309 143.75 317.5 L 143.75 317.5 L 143.75 317.5 Q 143.75 321.25 145.375 323.75 L 145.375 323.75 L 145.375 323.75 Q 147 326.25 145 326.875 L 145 326.875 L 145 326.875 Q 143 327.5 141.25 325.25 L 141.25 325.25 L 141.25 325.25 Q 139 323.75 139 315.25 L 139 315.25 L 139 315.25 Q 139 304 143 296.5 L 143 296.5 L 143 296.5 Q 143.5 295.75 144.625 293.875 L 144.625 293.875 L 144.625 293.875 Q 145.75 292 146.5 291.25 L 146.5 291.25 L 146.5 291.25 Q 144.75 291.25 137.125 291.25 L 137.125 291.25 L 137.125 291.25 Q 129.5 291.25 106.875 289.25 L 106.875 289.25 L 106.875 289.25 Q 84.25 287.25 72.75 287.25 L 72.75 287.25 L 72.75 287.25 Q 61.25 287.25 55 288.75 L 55 288.75 L 55 288.75 Q 31.25 292 14.125 301.875 L 14.125 301.875 L 14.125 301.875 Q -3 311.75 -6.25 326.75 L -6.25 326.75 L -6.25 326.75 Q -6.75 328.25 -6.75 330.375 L -6.75 330.375 L -6.75 330.375 Q -6.75 332.5 -5.375 335.5 L -5.375 335.5 L -5.375 335.5 Q -4 338.5 -2 340.25 L -2 340.25 L -2 340.25 Q 0 342 4.125 344.5 L 4.125 344.5 L 4.125 344.5 Q 8.25 347 9.625 348.125 L 9.625 348.125 L 9.625 348.125 Q 11 349.25 10.125 350 L 10.125 350 L 10.125 350 Q 9.25 350.75 8.375 350.75 L 8.375 350.75 L 8.375 350.75 Q 7.5 350.75 6.5 350.5 L 6.5 350.5 L 6.5 350.5 Q -2 348 -7.875 341.125 L -7.875 341.125 L -7.875 341.125 Q -13.75 334.25 -13.75 329.625 L -13.75 329.625 L -13.75 329.625 Q -13.75 325 -12.5 321.75 L -12.5 321.75 L -12.5 321.75 Q -12.5 319 -12.25 317.75 L -12.25 317.75 L -12.25 317.75 Q -8.5 300 10.5 290.25 L 10.5 290.25 L 10.5 290.25 Q 33.25 278.5 66 278.5 L 66 278.5 L 66 278.5 Q 84 278.5 110.25 282.75 L 110.25 282.75 L 110.25 282.75 Q 136.5 287 149.5 287.5 Z " fill-rule="evenodd" fill="rgb(0,0,0)"/><path d=" M 158.75 331.25 L 158.75 331.25 L 158.75 331.25 Q 172.25 331.25 172.25 344.25 L 172.25 344.25 L 172.25 344.25 Q 172.25 351 168.5 355.25 L 168.5 355.25 L 168.5 355.25 Q 162.25 364.5 148.25 371.375 L 148.25 371.375 L 148.25 371.375 Q 134.25 378.25 124.5 379 L 124.5 379 L 124.5 379 Q 121 379.25 120.75 377 L 120.75 377 L 120.75 377 Q 120.5 376 121.375 375.75 L 121.375 375.75 L 121.375 375.75 Q 122.25 375.5 122.75 375.5 L 122.75 375.5 L 122.75 375.5 Q 128.5 375 137.5 370 L 137.5 370 L 137.5 370 Q 154.25 361 162 351.5 L 162 351.5 L 162 351.5 Q 165.25 347 165.25 342.875 L 165.25 342.875 L 165.25 342.875 Q 165.25 338.75 161.25 338.75 L 161.25 338.75 L 161.25 338.75 Q 158 338.75 152.5 341.5 L 152.5 341.5 L 152.5 341.5 Q 140.75 347 127.75 360.625 L 127.75 360.625 L 127.75 360.625 Q 114.75 374.25 110.75 387.25 L 110.75 387.25 L 110.75 387.25 Q 109.5 391.25 109.5 395.125 L 109.5 395.125 L 109.5 395.125 Q 109.5 399 112.75 402.5 L 112.75 402.5 L 112.75 402.5 Q 116 406 122.75 406 L 122.75 406 L 122.75 406 Q 130.25 406 140 402 L 140 402 L 140 402 Q 168.25 390.5 183.5 367.25 L 183.5 367.25 L 183.5 367.25 Q 185 365.25 186.25 366.5 L 186.25 366.5 L 186.25 366.5 Q 187.25 367 187.25 367.75 L 187.25 367.75 L 187.25 367.75 Q 187.25 368.5 186.5 369.5 L 186.5 369.5 L 186.5 369.5 Q 179 382 167.5 391.75 L 167.5 391.75 L 167.5 391.75 Q 145.25 410.75 124.25 410.75 L 124.25 410.75 L 124.25 410.75 Q 106.25 410.75 99 400 L 99 400 L 99 400 Q 96.25 395.75 96.25 389.75 L 96.25 389.75 L 96.25 389.75 Q 96.25 383.75 99.5 375.5 L 99.5 375.5 L 99.5 375.5 Q 105.75 361.25 126.25 346.25 L 126.25 346.25 L 126.25 346.25 Q 146.75 331.25 158.75 331.25 Z " fill="rgb(0,0,0)"/><path d=" M 191.5 406.75 L 191.5 406.75 L 191.5 406.75 Q 187.5 406.75 182.875 404.375 L 182.875 404.375 L 182.875 404.375 Q 178.25 402 175 397.625 L 175 397.625 L 175 397.625 Q 171.75 393.25 171.75 388.25 L 171.75 388.25 L 171.75 388.25 Q 171.75 383.25 174 378.75 L 174 378.75 L 174 378.75 Q 179 368.25 190.125 358.375 L 190.125 358.375 L 190.125 358.375 Q 201.25 348.5 213.25 341.5 L 213.25 341.5 L 213.25 341.5 Q 225.25 334.5 232.25 332.75 L 232.25 332.75 L 232.25 332.75 Q 239.25 331 245.875 331 L 245.875 331 L 245.875 331 Q 252.5 331 257.25 334.375 L 257.25 334.375 L 257.25 334.375 Q 262 337.75 262 341.5 L 262 341.5 L 262 341.5 Q 262 342.75 261.75 343 L 261.75 343 L 261.75 343 Q 261.5 343.25 260.5 342.75 L 260.5 342.75 L 260.5 342.75 Q 257.5 338 248.125 338 L 248.125 338 L 248.125 338 Q 238.75 338 226.875 344.125 L 226.875 344.125 L 226.875 344.125 Q 215 350.25 204.5 359.5 L 204.5 359.5 L 204.5 359.5 Q 195.75 367.75 189.125 378.125 L 189.125 378.125 L 189.125 378.125 Q 182.5 388.5 182.5 393.25 L 182.5 393.25 L 182.5 393.25 Q 182.5 402.5 187.75 402.5 L 187.75 402.5 L 187.75 402.5 Q 193 402.5 203.75 394 L 203.75 394 L 203.75 394 Q 221.5 379 228 372 L 228 372 L 228 372 Q 251 347.25 252.75 347.25 L 252.75 347.25 L 252.75 347.25 Q 255.75 347.25 260 349 L 260 349 L 260 349 Q 264.25 350.75 262.75 353.25 L 262.75 353.25 L 262.75 353.25 Q 250 371.25 247.75 389.5 L 247.75 389.5 L 247.75 389.5 Q 247.5 391.75 247.5 395.25 L 247.5 395.25 L 247.5 395.25 Q 247.5 398.75 249.5 401 L 249.5 401 L 249.5 401 Q 253.25 405 259.75 401.5 L 259.75 401.5 L 259.75 401.5 Q 266.25 398 277.875 387.5 L 277.875 387.5 L 277.875 387.5 Q 289.5 377 296.5 367 L 296.5 367 L 296.5 367 Q 297.5 365.75 298.75 366.375 L 298.75 366.375 L 298.75 366.375 Q 300 367 300 367.5 L 300 367.5 L 300 367.5 Q 300 371.25 288.125 383.875 L 288.125 383.875 L 288.125 383.875 Q 276.25 396.5 270 401 L 270 401 L 270 401 Q 258.25 409.75 248.25 409.75 L 248.25 409.75 L 248.25 409.75 Q 238.75 409.75 235.5 400.25 L 235.5 400.25 L 235.5 400.25 Q 234.75 397.25 234.75 393.5 L 234.75 393.5 L 234.75 393.5 Q 234.75 382.25 239.5 369.75 L 239.5 369.75 L 239.5 369.75 Q 238.5 370.25 230.25 379.75 L 230.25 379.75 L 230.25 379.75 Q 222 389.25 211.125 398 L 211.125 398 L 211.125 398 Q 200.25 406.75 191.5 406.75 Z " fill="rgb(0,0,0)"/><path d=" M 436.75 257.25 L 436.75 257.25 L 436.75 257.25 Q 441.25 255.5 444.5 255.5 L 444.5 255.5 L 444.5 255.5 Q 455.5 255.5 459 261.5 L 459 261.5 L 459 261.5 Q 461 264.5 461 266.75 L 461 266.75 L 461 266.75 Q 461 283.75 432.5 309.5 L 432.5 309.5 L 432.5 309.5 Q 407.25 331.75 386 347.75 L 386 347.75 L 386 347.75 Q 379 363.5 371.5 386.5 L 371.5 386.5 L 371.5 386.5 Q 380.5 375.5 394.25 361 L 394.25 361 L 394.25 361 Q 422 332.25 433 332.25 L 433 332.25 L 433 332.25 Q 438.5 332.25 438.75 337.75 L 438.75 337.75 L 438.75 337.75 Q 439.25 343.5 436.375 348.75 L 436.375 348.75 L 436.375 348.75 Q 433.5 354 431 358.5 L 431 358.5 L 431 358.5 Q 419.25 378 419.25 393.25 L 419.25 393.25 L 419.25 393.25 Q 419.25 398.25 421.25 400.5 L 421.25 400.5 L 421.25 400.5 Q 424.75 404.5 431.25 401 L 431.25 401 L 431.25 401 Q 437.75 397.5 449.375 387 L 449.375 387 L 449.375 387 Q 461 376.5 468.25 366.5 L 468.25 366.5 L 468.25 366.5 Q 469.5 365.25 470.625 365.875 L 470.625 365.875 L 470.625 365.875 Q 471.75 366.5 471.75 367.125 L 471.75 367.125 L 471.75 367.125 Q 471.75 367.75 471.25 368.5 L 471.25 368.5 L 471.25 368.5 Q 467.5 375.25 457.75 385.625 L 457.75 385.625 L 457.75 385.625 Q 448 396 442 400.5 L 442 400.5 L 442 400.5 Q 430.5 409.25 420 409.25 L 420 409.25 L 420 409.25 Q 410.5 409.25 407.25 399.75 L 407.25 399.75 L 407.25 399.75 Q 406.5 397.5 406.5 394.375 L 406.5 394.375 L 406.5 394.375 Q 406.5 391.25 407 387.75 L 407 387.75 L 407 387.75 Q 408.25 377.25 420.25 355 L 420.25 355 L 420.25 355 Q 422.75 350.5 422.75 348.625 L 422.75 348.625 L 422.75 348.625 Q 422.75 346.75 420.75 346.75 L 420.75 346.75 L 420.75 346.75 Q 416.75 346.75 405.25 356.75 L 405.25 356.75 L 405.25 356.75 Q 397.5 364 382.375 384.125 L 382.375 384.125 L 382.375 384.125 Q 367.25 404.25 365.25 405.5 L 365.25 405.5 L 365.25 405.5 Q 356.25 410 354.125 410 L 354.125 410 L 354.125 410 Q 352 410 351.75 409.375 L 351.75 409.375 L 351.75 409.375 Q 351.5 408.75 352 407.75 L 352 407.75 L 352 407.75 Q 352.5 406.75 356 396.75 L 356 396.75 L 356 396.75 Q 367.75 363.5 372 352.75 L 372 352.75 L 372 352.75 Q 363.75 363.25 351.5 376.5 L 351.5 376.5 L 351.5 376.5 Q 349.5 378.5 349.5 375.625 L 349.5 375.625 L 349.5 375.625 Q 349.5 372.75 351.75 369.75 L 351.75 369.75 L 351.75 369.75 Q 354 366.75 361.125 358.125 L 361.125 358.125 L 361.125 358.125 Q 368.25 349.5 371.25 345.25 L 371.25 345.25 L 371.25 345.25 Q 369 344 368.875 341.75 L 368.875 341.75 L 368.875 341.75 Q 368.75 339.5 370.375 338.625 L 370.375 338.625 L 370.375 338.625 Q 372 337.75 375.75 339.25 L 375.75 339.25 L 375.75 339.25 Q 378.25 335.75 380.25 331.5 L 380.25 331.5 L 380.25 331.5 Q 410 267.5 436.75 257.25 Z  M 450.75 276 L 450.75 276 L 450.75 276 Q 454 270 454 265.875 L 454 265.875 L 454 265.875 Q 454 261.75 450.375 261.75 L 450.375 261.75 L 450.375 261.75 Q 446.75 261.75 440.75 266.25 L 440.75 266.25 L 440.75 266.25 Q 413.25 287.25 391 336.5 L 391 336.5 L 391 336.5 Q 407.25 326 425 308.5 L 425 308.5 L 425 308.5 Q 442.75 291 450.75 276 Z " fill-rule="evenodd" fill="rgb(0,0,0)"/><path d=" M 524.75 323 L 524.75 323 L 524.75 323 Q 538.25 323 538.25 336 L 538.25 336 L 538.25 336 Q 538.25 342.75 534.5 347 L 534.5 347 L 534.5 347 Q 528.25 356.25 514.25 363.125 L 514.25 363.125 L 514.25 363.125 Q 500.25 370 490.5 370.75 L 490.5 370.75 L 490.5 370.75 Q 487 371 486.75 368.75 L 486.75 368.75 L 486.75 368.75 Q 486.5 367.75 487.375 367.5 L 487.375 367.5 L 487.375 367.5 Q 488.25 367.25 488.75 367.25 L 488.75 367.25 L 488.75 367.25 Q 494.5 366.75 503.5 361.75 L 503.5 361.75 L 503.5 361.75 Q 520.25 352.75 528 343.25 L 528 343.25 L 528 343.25 Q 531.25 338.75 531.25 334.625 L 531.25 334.625 L 531.25 334.625 Q 531.25 330.5 527.25 330.5 L 527.25 330.5 L 527.25 330.5 Q 524 330.5 518.5 333.25 L 518.5 333.25 L 518.5 333.25 Q 506.75 338.75 493.75 352.375 L 493.75 352.375 L 493.75 352.375 Q 480.75 366 476.75 379 L 476.75 379 L 476.75 379 Q 475.5 383 475.5 386.875 L 475.5 386.875 L 475.5 386.875 Q 475.5 390.75 478.75 394.25 L 478.75 394.25 L 478.75 394.25 Q 482 397.75 488.75 397.75 L 488.75 397.75 L 488.75 397.75 Q 496.25 397.75 506 393.75 L 506 393.75 L 506 393.75 Q 534.25 382.25 549.5 359 L 549.5 359 L 549.5 359 Q 551 357 552.25 358.25 L 552.25 358.25 L 552.25 358.25 Q 553.25 358.75 553.25 359.5 L 553.25 359.5 L 553.25 359.5 Q 553.25 360.25 552.5 361.25 L 552.5 361.25 L 552.5 361.25 Q 545 373.75 533.5 383.5 L 533.5 383.5 L 533.5 383.5 Q 511.25 402.5 490.25 402.5 L 490.25 402.5 L 490.25 402.5 Q 472.25 402.5 465 391.75 L 465 391.75 L 465 391.75 Q 462.25 387.5 462.25 381.5 L 462.25 381.5 L 462.25 381.5 Q 462.25 375.5 465.5 367.25 L 465.5 367.25 L 465.5 367.25 Q 471.75 353 492.25 338 L 492.25 338 L 492.25 338 Q 512.75 323 524.75 323 Z " fill="rgb(0,0,0)"/><path d=" M 570.75 412.75 L 570.75 412.75 L 570.75 412.75 Q 558 412.75 558 397.375 L 558 397.375 L 558 397.375 Q 558 382 580 359.5 L 580 359.5 L 580 359.5 Q 581.75 357.75 582.5 356.75 L 582.5 356.75 L 584.25 354.25 L 584.25 354.25 Q 587.75 349.5 587.5 348.25 L 587.5 348.25 L 586.75 346 L 586.75 346 Q 585.75 343 578.5 341.625 L 578.5 341.625 L 578.5 341.625 Q 571.25 340.25 566.75 340.25 L 566.75 340.25 L 566.75 340.25 Q 544.25 372 540.75 376.5 L 540.75 376.5 L 540.75 376.5 Q 537.25 381 536 380.25 L 536 380.25 L 536 380.25 Q 534.75 379.5 534.75 378.5 L 534.75 378.5 L 534.75 378.5 Q 534.75 377.5 536.25 375.5 L 536.25 375.5 L 536.25 375.5 Q 549.75 359 559.5 340.25 L 559.5 340.25 L 559.5 340.25 Q 556.5 339.75 555 338.125 L 555 338.125 L 555 338.125 Q 553.5 336.5 554.75 332.625 L 554.75 332.625 L 554.75 332.625 Q 556 328.75 562.375 322.25 L 562.375 322.25 L 562.375 322.25 Q 568.75 315.75 573.5 313.5 L 573.5 313.5 L 573.5 313.5 Q 578.25 311.25 579.5 310.75 L 579.5 310.75 L 579.5 310.75 Q 580.75 310.25 582.25 310.25 L 582.25 310.25 L 582.25 310.25 Q 585.25 310.25 580.25 319.25 L 580.25 319.25 L 570.5 334.75 L 570.5 334.75 Q 581.75 335.5 589.75 335.5 L 589.75 335.5 L 598.5 335.25 L 598.5 335.25 Q 602.75 335.25 604.75 336.375 L 604.75 336.375 L 604.75 336.375 Q 606.75 337.5 605.75 340.25 L 605.75 340.25 L 605.75 340.25 Q 604 345 597 353 L 597 353 L 597 353 Q 582 370.5 574.5 390.25 L 574.5 390.25 L 574.5 390.25 Q 572.75 395 572.75 398.5 L 572.75 398.5 L 572.75 398.5 Q 572.75 405.75 578 405.75 L 578 405.75 L 578 405.75 Q 579.75 405.75 584.625 403 L 584.625 403 L 584.625 403 Q 589.5 400.25 601 389.875 L 601 389.875 L 601 389.875 Q 612.5 379.5 619.5 369.5 L 619.5 369.5 L 619.5 369.5 Q 620.5 368.25 621.875 368.875 L 621.875 368.875 L 621.875 368.875 Q 623.25 369.5 623.25 370.125 L 623.25 370.125 L 623.25 370.125 Q 623.25 370.75 622.75 371.5 L 622.75 371.5 L 622.75 371.5 Q 619 378.25 609.25 388.75 L 609.25 388.75 L 609.25 388.75 Q 599.5 399.25 590.25 405.75 L 590.25 405.75 L 590.25 405.75 Q 581.25 412.75 570.75 412.75 Z " fill="rgb(0,0,0)"/></svg>